<?xml version="1.0" encoding="UTF-8"?>
<svg xmlns="http://www.w3.org/2000/svg" width="960" height="740" viewBox="0 0 960 740">
  <rect width="960" height="740" fill="#f3efe7" />
  <text x="40" y="24" font-family="Segoe UI, Arial, sans-serif" font-size="20" font-weight="700" fill="#222">d6 constructor net preview</text>
  <text x="40" y="728" font-family="Segoe UI, Arial, sans-serif" font-size="16" fill="#444">This net is a design/debug surface. The runtime still renders a UV-mapped atlas on the real 3D mesh.</text>
  
    <g data-slot="ypos" data-value="1">
      <rect x="260" y="40" width="220" height="220" rx="16" ry="16" fill="#c83333" stroke="#1c1c1c" stroke-width="4" />
      <text x="274" y="66" font-family="Segoe UI, Arial, sans-serif" font-size="16" fill="#444">ypos  u=[0.834,0.996] v=[0.004,0.165]</text>
      <text x="370" y="242" text-anchor="middle" font-family="Segoe UI, Arial, sans-serif" font-size="24" font-weight="700" fill="#444">value 1</text>
      <text x="370" y="150" text-anchor="middle" dominant-baseline="central" font-family="Georgia, Times New Roman, serif" font-size="140.8" font-weight="700" fill="#fff7ef">J</text>
    </g>

    <g data-slot="xneg" data-value="4">
      <rect x="40" y="260" width="220" height="220" rx="16" ry="16" fill="#c83333" stroke="#1c1c1c" stroke-width="4" />
      <text x="54" y="286" font-family="Segoe UI, Arial, sans-serif" font-size="16" fill="#444">xneg  u=[0.219,0.381] v=[0.819,0.979]</text>
      <text x="150" y="462" text-anchor="middle" font-family="Segoe UI, Arial, sans-serif" font-size="24" font-weight="700" fill="#444">value 4</text>
      <circle cx="100.32" cy="320.32" r="18" fill="#fff7ef" /><circle cx="199.68" cy="320.32" r="18" fill="#fff7ef" /><circle cx="100.32" cy="419.68" r="18" fill="#fff7ef" /><circle cx="199.68" cy="419.68" r="18" fill="#fff7ef" />
    </g>

    <g data-slot="zpos" data-value="2">
      <rect x="260" y="260" width="220" height="220" rx="16" ry="16" fill="#c83333" stroke="#1c1c1c" stroke-width="4" />
      <text x="274" y="286" font-family="Segoe UI, Arial, sans-serif" font-size="16" fill="#444">zpos  u=[0.834,0.995] v=[0.185,0.345]</text>
      <text x="370" y="462" text-anchor="middle" font-family="Segoe UI, Arial, sans-serif" font-size="24" font-weight="700" fill="#444">value 2</text>
      <circle cx="320.32" cy="320.32" r="18" fill="#fff7ef" /><circle cx="419.68" cy="419.68" r="18" fill="#fff7ef" />
    </g>

    <g data-slot="xpos" data-value="3">
      <rect x="480" y="260" width="220" height="220" rx="16" ry="16" fill="#c83333" stroke="#1c1c1c" stroke-width="4" />
      <text x="494" y="286" font-family="Segoe UI, Arial, sans-serif" font-size="16" fill="#444">xpos  u=[0.834,0.995] v=[0.355,0.515]</text>
      <text x="590" y="462" text-anchor="middle" font-family="Segoe UI, Arial, sans-serif" font-size="24" font-weight="700" fill="#444">value 3</text>
      <circle cx="540.32" cy="320.32" r="18" fill="#fff7ef" /><circle cx="590" cy="370" r="18" fill="#fff7ef" /><circle cx="639.68" cy="419.68" r="18" fill="#fff7ef" />
    </g>

    <g data-slot="zneg" data-value="5">
      <rect x="700" y="260" width="220" height="220" rx="16" ry="16" fill="#c83333" stroke="#1c1c1c" stroke-width="4" />
      <text x="714" y="286" font-family="Segoe UI, Arial, sans-serif" font-size="16" fill="#444">zneg  u=[0.388,0.55] v=[0.819,0.979]</text>
      <text x="810" y="462" text-anchor="middle" font-family="Segoe UI, Arial, sans-serif" font-size="24" font-weight="700" fill="#444">value 5</text>
      <circle cx="760.32" cy="320.32" r="18" fill="#fff7ef" /><circle cx="859.68" cy="320.32" r="18" fill="#fff7ef" /><circle cx="810" cy="370" r="18" fill="#fff7ef" /><circle cx="760.32" cy="419.68" r="18" fill="#fff7ef" /><circle cx="859.68" cy="419.68" r="18" fill="#fff7ef" />
    </g>

    <g data-slot="yneg" data-value="6">
      <rect x="260" y="480" width="220" height="220" rx="16" ry="16" fill="#c83333" stroke="#1c1c1c" stroke-width="4" />
      <text x="274" y="506" font-family="Segoe UI, Arial, sans-serif" font-size="16" fill="#444">yneg  u=[0.833,0.995] v=[0.525,0.685]</text>
      <text x="370" y="682" text-anchor="middle" font-family="Segoe UI, Arial, sans-serif" font-size="24" font-weight="700" fill="#444">value 6</text>
      <circle cx="320.32" cy="540.32" r="18" fill="#fff7ef" /><circle cx="419.68" cy="540.32" r="18" fill="#fff7ef" /><circle cx="320.32" cy="590" r="18" fill="#fff7ef" /><circle cx="419.68" cy="590" r="18" fill="#fff7ef" /><circle cx="320.32" cy="639.68" r="18" fill="#fff7ef" /><circle cx="419.68" cy="639.68" r="18" fill="#fff7ef" />
    </g>
</svg>
