<?xml version="1.0" encoding="UTF-8"?>
<svg xmlns="http://www.w3.org/2000/svg" width="1024" height="1024" viewBox="0 0 1024 1024">
  <rect width="1024" height="1024" fill="#f6f1e7" />
  
    <g data-slot="ypos" data-value="1">
      <rect
        x="838.016"
        y="-11.904"
        width="197.888"
        height="196.864"
        rx="14"
        ry="14"
        fill="#fffdfa"
      />
      <polygon points="883.732,40.366 978.76,40.366 979.988,140.933 884.367,140.933" fill="none" stroke="#17130f" stroke-width="6" /><line x1="884.045" y1="90.65" x2="979.364" y2="90.65" stroke="#17130f" stroke-width="3" /><line x1="931.246" y1="40.366" x2="932.178" y2="140.933" stroke="#17130f" stroke-width="3" /><circle cx="931.558" cy="90.65" r="8" fill="#17130f" /><text x="932.003" y="126.854" text-anchor="middle" font-family="Segoe UI, Arial, sans-serif" font-size="19.005" font-weight="700" fill="#17130f">1</text>
    </g>

    <g data-slot="zpos" data-value="2">
      <rect
        x="838.016"
        y="173.44"
        width="196.864"
        height="195.84"
        rx="14"
        ry="14"
        fill="#fffdfa"
      />
      <polygon points="884.316,223.846 979.343,223.846 978.708,325.427 883.681,325.427" fill="none" stroke="#17130f" stroke-width="6" /><line x1="883.999" y1="274.637" x2="979.026" y2="274.637" stroke="#17130f" stroke-width="3" /><line x1="931.83" y1="223.846" x2="931.195" y2="325.427" stroke="#17130f" stroke-width="3" /><circle cx="931.512" cy="274.637" r="8" fill="#17130f" /><text x="931.284" y="311.206" text-anchor="middle" font-family="Segoe UI, Arial, sans-serif" font-size="19.005" font-weight="700" fill="#17130f">2</text>
    </g>

    <g data-slot="xpos" data-value="3">
      <rect
        x="838.016"
        y="347.52"
        width="196.864"
        height="195.84"
        rx="14"
        ry="14"
        fill="#fffdfa"
      />
      <polygon points="883.722,397.926 978.749,397.926 979.384,499.507 884.357,499.507" fill="none" stroke="#17130f" stroke-width="6" /><line x1="884.04" y1="448.717" x2="979.067" y2="448.717" stroke="#17130f" stroke-width="3" /><line x1="931.236" y1="397.926" x2="931.871" y2="499.507" stroke="#17130f" stroke-width="3" /><circle cx="931.553" cy="448.717" r="8" fill="#17130f" /><text x="931.782" y="485.286" text-anchor="middle" font-family="Segoe UI, Arial, sans-serif" font-size="19.005" font-weight="700" fill="#17130f">3</text>
    </g>

    <g data-slot="xneg" data-value="4">
      <rect
        x="208.256"
        y="822.656"
        width="197.888"
        height="195.84"
        rx="14"
        ry="14"
        fill="#fffdfa"
      />
      <polygon points="255.386,871.424 352.051,871.424 350.761,974.643 254.095,974.643" fill="none" stroke="#17130f" stroke-width="6" /><line x1="254.74" y1="923.034" x2="351.406" y2="923.034" stroke="#17130f" stroke-width="3" /><line x1="303.718" y1="871.424" x2="302.428" y2="974.643" stroke="#17130f" stroke-width="3" /><circle cx="303.073" cy="923.034" r="8" fill="#17130f" /><text x="302.609" y="960.193" text-anchor="middle" font-family="Segoe UI, Arial, sans-serif" font-size="19.333" font-weight="700" fill="#17130f">4</text>
    </g>

    <g data-slot="zneg" data-value="5">
      <rect
        x="381.312"
        y="822.656"
        width="197.888"
        height="195.84"
        rx="14"
        ry="14"
        fill="#fffdfa"
      />
      <polygon points="426.803,871.424 525.107,871.424 523.796,976.282 425.492,976.282" fill="none" stroke="#17130f" stroke-width="6" /><line x1="426.148" y1="923.853" x2="524.452" y2="923.853" stroke="#17130f" stroke-width="3" /><line x1="475.955" y1="871.424" x2="474.644" y2="976.282" stroke="#17130f" stroke-width="3" /><circle cx="475.3" cy="923.853" r="8" fill="#17130f" /><text x="474.828" y="961.602" text-anchor="middle" font-family="Segoe UI, Arial, sans-serif" font-size="19.661" font-weight="700" fill="#17130f">5</text>
    </g>

    <g data-slot="yneg" data-value="6">
      <rect
        x="836.992"
        y="521.6"
        width="197.888"
        height="195.84"
        rx="14"
        ry="14"
        fill="#fffdfa"
      />
      <polygon points="884.224,576.922 976.036,576.922 975.319,675.226 882.995,675.226" fill="none" stroke="#17130f" stroke-width="6" /><line x1="883.61" y1="626.074" x2="975.729" y2="626.074" stroke="#17130f" stroke-width="3" /><line x1="930.161" y1="576.922" x2="929.157" y2="675.226" stroke="#17130f" stroke-width="3" /><circle cx="929.772" cy="626.074" r="8" fill="#17130f" /><text x="929.329" y="661.463" text-anchor="middle" font-family="Segoe UI, Arial, sans-serif" font-size="18.362" font-weight="700" fill="#17130f">6</text>
    </g>
</svg>
