<?xml version="1.0" encoding="UTF-8"?>
<svg xmlns="http://www.w3.org/2000/svg" width="1024" height="1024" viewBox="0 0 1024 1024">
  <rect width="1024" height="1024" fill="#f6f1e7" />
  
    <g data-slot="ypos" data-value="1">
      <rect
        x="838.016"
        y="-11.904"
        width="197.888"
        height="196.864"
        rx="14"
        ry="14"
        fill="#fffdfa"
      />
      <ellipse cx="936.448" cy="86.528" rx="10.184" ry="10.711" fill="#17130f" />
    </g>

    <g data-slot="zpos" data-value="2">
      <rect
        x="838.016"
        y="173.44"
        width="196.864"
        height="195.84"
        rx="14"
        ry="14"
        fill="#fffdfa"
      />
      <ellipse cx="910.49" cy="243.425" rx="10.12" ry="10.819" fill="#17130f" /><ellipse cx="962.406" cy="299.295" rx="10.12" ry="10.819" fill="#17130f" />
    </g>

    <g data-slot="xpos" data-value="3">
      <rect
        x="838.016"
        y="347.52"
        width="196.864"
        height="195.84"
        rx="14"
        ry="14"
        fill="#fffdfa"
      />
      <ellipse cx="910.141" cy="417.505" rx="10.12" ry="10.819" fill="#17130f" /><ellipse cx="936.448" cy="445.44" rx="10.12" ry="10.819" fill="#17130f" /><ellipse cx="962.755" cy="473.375" rx="10.12" ry="10.819" fill="#17130f" />
    </g>

    <g data-slot="xneg" data-value="4">
      <rect
        x="208.256"
        y="822.656"
        width="197.888"
        height="195.84"
        rx="14"
        ry="14"
        fill="#fffdfa"
      />
      <ellipse cx="280.972" cy="892.191" rx="10.295" ry="10.994" fill="#17130f" /><ellipse cx="334.138" cy="892.191" rx="10.295" ry="10.994" fill="#17130f" /><ellipse cx="280.262" cy="948.961" rx="10.295" ry="10.994" fill="#17130f" /><ellipse cx="333.428" cy="948.961" rx="10.295" ry="10.994" fill="#17130f" />
    </g>

    <g data-slot="zneg" data-value="5">
      <rect
        x="381.312"
        y="822.656"
        width="197.888"
        height="195.84"
        rx="14"
        ry="14"
        fill="#fffdfa"
      />
      <ellipse cx="453.583" cy="891.74" rx="10.469" ry="11.168" fill="#17130f" /><ellipse cx="507.65" cy="891.74" rx="10.469" ry="11.168" fill="#17130f" /><ellipse cx="480.256" cy="920.576" rx="10.469" ry="11.168" fill="#17130f" /><ellipse cx="452.862" cy="949.412" rx="10.469" ry="11.168" fill="#17130f" /><ellipse cx="506.929" cy="949.412" rx="10.469" ry="11.168" fill="#17130f" />
    </g>

    <g data-slot="yneg" data-value="6">
      <rect
        x="836.992"
        y="521.6"
        width="197.888"
        height="195.84"
        rx="14"
        ry="14"
        fill="#fffdfa"
      />
      <ellipse cx="911.386" cy="592.486" rx="9.771" ry="10.47" fill="#17130f" /><ellipse cx="961.848" cy="592.486" rx="9.771" ry="10.47" fill="#17130f" /><ellipse cx="911.059" cy="619.52" rx="9.832" ry="10.47" fill="#17130f" /><ellipse cx="961.679" cy="619.52" rx="9.771" ry="10.47" fill="#17130f" /><ellipse cx="910.721" cy="646.554" rx="9.832" ry="10.47" fill="#17130f" /><ellipse cx="961.499" cy="646.554" rx="9.783" ry="10.47" fill="#17130f" />
    </g>
</svg>
